# xmcd
#
# Track frame offsets: 
#        150
#        22021
#        39089
#        55422
#        69380
#        103459
#        131216
#        149768
#        180495
#        201624
#        227976
#        246418
#        266922
#        285864
#        303721
#        322663
#        342937
#
# Disc length: 4879 seconds
#
# Revision: 2
# Processed by: cddbd v1.5.2PL0 Copyright (c) Steve Scherf et al.
# Submitted via: ExactAudioCopy v0.99pb5
#
DISCID=10130d11
DTITLE=Celine Dion - All The Way - A Decade Of Songs (DTS)
DYEAR=1990
DGENRE=Pop
TTITLE0=The Power Of Love
TTITLE1=If You Asked Me To
TTITLE2=Misled
TTITLE3=Beauty And The Beast
TTITLE4=Because You Loved Me
TTITLE5=It's All Coming Back To Me
TTITLE6=Love Can Move Mountains
TTITLE7=To Love You More
TTITLE8=My Heart Will Go On
TTITLE9=I'm Your Angel
TTITLE10=That's The Way It Is
TTITLE11=If Walls Could Talk
TTITLE12=The First Time Ever I Saw You Face
TTITLE13=All The Way
TTITLE14=Then You Look At Me
TTITLE15=I Want You To Need Me
TTITLE16=Live For The One I Love
EXTD=
EXTT0=
EXTT1=
EXTT2=
EXTT3=
EXTT4=
EXTT5=
EXTT6=
EXTT7=
EXTT8=
EXTT9=
EXTT10=
EXTT11=
EXTT12=
EXTT13=
EXTT14=
EXTT15=
EXTT16=
PLAYORDER=
